<?xml version="1.0" encoding="UTF-8" standalone="no"?> <svg id="stroke" fill="#d64d2b" xmlns="http://www.w3.org/2000/svg" viewBox="0 0 340 340"><path d="M260.172,137.309v10.9h16.867V117.264A20.386,20.386,0,0,0,260.172,137.309Z"/><path d="M260.172,164.985a20.386,20.386,0,0,0,16.867,20.045V155.213H260.172Z"/><path d="M300.906,164.985v-9.772H284.039V185.03A20.385,20.385,0,0,0,300.906,164.985Z"/><path d="M253.784,50.942v8.985A26.817,26.817,0,0,0,263.562,80.6v7.966a4.3,4.3,0,0,1-3.1,4.131A45.2,45.2,0,0,0,240.415,105a28.133,28.133,0,0,0-7.509,19.231v75.53A15.111,15.111,0,0,0,248,214.853h23.255V258.3H259.73a13.4,13.4,0,0,0-13.4,13.4v.845A5.677,5.677,0,0,0,252,278.224H310.4a5.676,5.676,0,0,0,5.676-5.676V271.7a13.4,13.4,0,0,0-13.4-13.4H291.28V214.853h21.8a15.111,15.111,0,0,0,15.094-15.093V124.23A28.133,28.133,0,0,0,320.662,105a45.2,45.2,0,0,0-20.046-12.3,4.3,4.3,0,0,1-3.1-4.131V80.6A26.827,26.827,0,0,0,307.3,59.927V50.942a26.756,26.756,0,0,0-53.511,0Zm54.122,86.367v27.676a27.367,27.367,0,1,1-54.734,0V137.309a27.367,27.367,0,1,1,54.734,0Z"/><path d="M300.906,137.309a20.385,20.385,0,0,0-16.867-20.045v30.949h16.867Z"/><path d="M102.264,180.369V157.977a49,49,0,0,0-45.514,48.81v20.756H73.233v-14.9A32.505,32.505,0,0,1,102.264,180.369Z"/><path d="M120.952,261.944a10.806,10.806,0,0,1,10.129-10.78c.038-.573.074-16.621.074-16.621H109.264v40.108a25.342,25.342,0,0,0,13.669-6.481A10.753,10.753,0,0,1,120.952,261.944Z"/><path d="M102.264,234.543H80.233v14.9a25.5,25.5,0,0,0,22.031,25.224Z"/><path d="M80.233,212.648v14.9h22.031V187.424A25.5,25.5,0,0,0,80.233,212.648Z"/><path d="M154.638,255.3V234.543H138.155v18.244s4.426,2.437,4.426,9.157a10.821,10.821,0,0,1-14.018,10.332c-4.3,4.96-12.315,8.657-19.3,9.423v22.4A49,49,0,0,0,154.638,255.3Z"/><path d="M131.155,212.648a25.5,25.5,0,0,0-21.891-25.206v40.1h21.891Z"/><path d="M102.194,36.423A22.613,22.613,0,0,0,83.34,55.657h18.854Z"/><path d="M127.909,62.657H109.194V81.012A22.619,22.619,0,0,0,127.909,62.657Z"/><path d="M109.194,36.423V55.657h18.854A22.616,22.616,0,0,0,109.194,36.423Z"/><path d="M26.922,336.1h157.1a15.092,15.092,0,0,0,15.063-16.033s-9.027-144.683-9.035-144.744c-1.227-10.6-4.348-23.61-17.716-30.218a12.179,12.179,0,0,0-12.072.83,7.543,7.543,0,0,1-5.018,1.141,7.774,7.774,0,0,1-6.147-4.9,7.109,7.109,0,0,1-.328-4.311,3.5,3.5,0,0,0-2.169-4.034c-2.75-1.049-5.581-2.06-8.416-3a12.9,12.9,0,0,1-8.832-12.257V104A50.886,50.886,0,0,0,143.62,86.239c7.613-3.177,12.055-10.832,12.562-21.748a9.75,9.75,0,0,0-6.23-9.535C148.6,26.566,129.186,3.9,105.694,3.9s-42.9,22.667-44.258,51.057a9.75,9.75,0,0,0-6.23,9.535c.5,10.916,4.947,18.571,12.562,21.748A50.882,50.882,0,0,0,82.032,104v14.566a12.894,12.894,0,0,1-8.823,12.254,177.882,177.882,0,0,0-30.189,13.066A43.611,43.611,0,0,0,21.357,175.17c-1.9,11.8-3.668,24.86-5.116,37.768a3.408,3.408,0,0,0,3.454,3.89c1.376,0,8.013.582,8.013,7.581a7.871,7.871,0,0,1-5.141,7.007,13.8,13.8,0,0,0-8.747,12.565l-1.987,76.636A15.095,15.095,0,0,0,26.922,336.1ZM76.127,58.717a29.567,29.567,0,1,1,29.567,29.567A29.6,29.6,0,0,1,76.127,58.717Zm-20.859,200.2A10.808,10.808,0,0,1,62.3,277.94a49.113,49.113,0,0,0,39.966,26.181v-22.4a32.505,32.505,0,0,1-29.031-32.279v-14.9H56.75v9.9a3.5,3.5,0,0,1-7,0V206.787a55.928,55.928,0,0,1,97.928-36.947,10.842,10.842,0,1,1-5.7,4.13,48.847,48.847,0,0,0-32.718-15.981v22.4a32.505,32.505,0,0,1,28.891,32.261v14.9h16.483s-.021-22.411-.063-23.23a3.5,3.5,0,0,1,6.993-.351c.046.938.07,51.339.07,51.339A55.95,55.95,0,0,1,55.749,280.522c-.161.007-.318.024-.481.024a10.815,10.815,0,0,1,0-21.629Z"/><path d="M102.194,81.012V62.657H83.479A22.618,22.618,0,0,0,102.194,81.012Z"/></svg>