<?xml version="1.0" encoding="iso-8859-1"?>
<!-- Generator: Adobe Illustrator 23.1.1, SVG Export Plug-In . SVG Version: 6.00 Build 0)  -->
<svg fill="#d64d2b" version="1.1" id="Line-Expand" xmlns="http://www.w3.org/2000/svg" xmlns:xlink="http://www.w3.org/1999/xlink" x="0px"
	 y="0px" viewBox="0 0 64 64" style="enable-background:new 0 0 64 64;" xml:space="preserve">
<path d="M46,30h-0.111C47.19,28.728,48,26.958,48,25s-0.81-3.728-2.111-5H46v-2h-2v0.685C43.089,18.251,42.074,18,41,18
	s-2.089,0.251-3,0.685V18h-2v2h0.111C34.81,21.272,34,23.042,34,25s0.81,3.728,2.111,5h-0.3c-2.084,0-4.044,0.918-5.378,2.519
	l-2.5,3l-4.226-4.226c-0.391-0.391-1.023-0.391-1.414,0l-3,3c-0.374,0.375-0.393,0.976-0.04,1.372l5.182,5.829
	c0.924,1.04,2.199,1.635,3.59,1.676c1.379,0.033,2.698-0.479,3.683-1.462L34,39.415V61c0,0.552,0.447,1,1,1h12c0.553,0,1-0.448,1-1
	V48h4c0.553,0,1-0.448,1-1V37C53,33.14,49.859,30,46,30z M36,25c0-2.757,2.243-5,5-5s5,2.243,5,5s-2.243,5-5,5
	c-0.761,0-1.475-0.184-2.122-0.49C40.134,28.835,41,27.523,41,26h-2c0,1.095-0.885,1.985-1.976,1.998C36.39,27.16,36,26.129,36,25z
	 M51,46h-3V36h-2v24h-4V46h-2v14h-4V37c0-0.404-0.244-0.769-0.617-0.924c-0.374-0.154-0.804-0.07-1.09,0.217l-4,4
	c-0.59,0.59-1.349,0.901-2.21,0.877c-0.834-0.024-1.6-0.382-2.154-1.006l-4.555-5.124L23,33.414l4.293,4.293
	c0.198,0.198,0.476,0.302,0.752,0.292c0.281-0.013,0.543-0.143,0.724-0.359l3.201-3.841C32.922,32.656,34.322,32,35.811,32H46
	c2.757,0,5,2.243,5,5V46z"/>
<path d="M21,56h-4V39h2v-2h-2V5c0-0.551,0.448-1,1-1h21c0.552,0,1,0.449,1,1v1h-5c-1.654,0-3,1.346-3,3v2c0,0.552,0.447,1,1,1h16
	c0.553,0,1-0.448,1-1V9c0-1.654-1.346-3-3-3h-5V5c0-1.654-1.346-3-3-3H18c-1.654,0-3,1.346-3,3v51h-4c-0.553,0-1,0.448-1,1v4
	c0,0.552,0.447,1,1,1h10c0.553,0,1-0.448,1-1v-4C22,56.448,21.553,56,21,56z M48,9v1H34V9c0-0.551,0.448-1,1-1h12
	C47.552,8,48,8.449,48,9z M20,60h-8v-2h8V60z"/>
<rect x="32" y="14" width="2" height="2"/>
<rect x="36" y="14" width="2" height="2"/>
<rect x="40" y="14" width="2" height="2"/>
<rect x="44" y="14" width="2" height="2"/>
<rect x="48" y="14" width="2" height="2"/>
<rect x="32" y="18" width="2" height="2"/>
<rect x="48" y="18" width="2" height="2"/>
<rect x="32" y="22" width="2" height="2"/>
<rect x="48" y="22" width="2" height="2"/>
<rect x="48" y="26" width="2" height="2"/>
<rect x="32" y="26" width="2" height="2"/>
</svg>
